# xmcd
# 
# Track frame offsets:
#     150
#     10342
#     39257
#     60437
#     73671
#     93564
#     109135
# 
# Disc length: 1560
# 
# Revision: 0
# Processed by: cddbd v1.5.2PL0 Copyright (c) Steve Scherf et al.
# Submitted via: fre:ac v1.0.17
# 
DISCID=54061607
DTITLE=Conni - Conni hat Geburtstag
DYEAR=2007
DGENRE=Hörbuch
TTITLE0=Conni Titelsong
TTITLE1=Geburtstag - bald ist es soweit
TTITLE2=Conni wird 5
TTITLE3=Die Feier beginnt
TTITLE4=Die Schatzsuche
TTITLE5=Jede Feier hat einmal ein Ende
TTITLE6=Heut ist dein Geburtstag
EXTD=
EXTT0=
EXTT1=
EXTT2=
EXTT3=
EXTT4=
EXTT5=
EXTT6=
PLAYORDER=
